<svg width="35" height="31" viewBox="0 0 35 31" fill="none" xmlns="http://www.w3.org/2000/svg">
<g id="Group">
<path id="Vector" d="M11.2019 14.1317C10.3399 13.8835 9.47783 13.7576 8.6393 13.7576C7.34442 13.7576 6.26394 14.0535 5.42614 14.4159C6.23384 11.459 8.17414 6.3569 12.0393 5.78233C12.2146 5.75625 12.3785 5.68001 12.5114 5.56281C12.6443 5.44562 12.7405 5.29248 12.7883 5.12186L13.6331 2.10035C13.6684 1.97412 13.6762 1.84179 13.6561 1.71227C13.636 1.58276 13.5883 1.45905 13.5164 1.34948C13.4445 1.23991 13.3499 1.14702 13.2391 1.07706C13.1282 1.0071 13.0037 0.961681 12.8738 0.943873C12.5874 0.904847 12.2987 0.885222 12.0096 0.885132C7.37012 0.885132 2.77543 5.72763 0.836596 12.6613C-0.30152 16.7292 -0.635245 22.8449 2.16819 26.6943C3.73696 28.8483 6.02567 29.9985 8.97082 30.1134L9.0068 30.1142C12.6407 30.1142 15.863 27.6668 16.8433 24.1633C17.1341 23.134 17.218 22.0572 17.0899 20.9953C16.9619 19.9333 16.6245 18.9074 16.0973 17.9767C15.0418 16.1025 13.3034 14.7364 11.2019 14.1317ZM33.9492 17.9771C32.8937 16.1025 31.1553 14.7364 29.0538 14.1317C28.1918 13.8835 27.3297 13.7576 26.4916 13.7576C25.3866 13.7543 24.2927 13.9783 23.278 14.4159C24.0857 11.459 26.026 6.3569 29.8916 5.78233C30.0668 5.75616 30.2307 5.67989 30.3636 5.56271C30.4965 5.44553 30.5927 5.29243 30.6405 5.12186L31.4853 2.10035C31.5206 1.97412 31.5285 1.84179 31.5083 1.71227C31.4882 1.58276 31.4406 1.45905 31.3687 1.34948C31.2967 1.23991 31.2022 1.14702 31.0913 1.07706C30.9805 1.0071 30.8559 0.961681 30.7261 0.943873C30.4397 0.904823 30.1509 0.885198 29.8619 0.885132C25.2224 0.885132 20.6277 5.72763 18.6885 12.6613C17.5507 16.7292 17.217 22.8449 20.0208 26.695C21.5892 28.8486 23.8783 29.9992 26.8231 30.1138L26.8594 30.1145C30.493 30.1145 33.7157 27.6672 34.6959 24.1636C34.9864 23.1343 35.07 22.0575 34.9418 20.9956C34.8136 19.9337 34.4763 18.9078 33.9492 17.9771Z" fill="#FF3179"/>
</g>
</svg>
