<svg width="36" height="36" viewBox="0 0 36 36" fill="none" xmlns="http://www.w3.org/2000/svg">
<g id="svgviewer-output (44) 2">
<g id="Group">
<path id="Vector" d="M34.2 5.4H26.4V3C26.398 1.34385 25.0562 0.002025 23.4 0H12.6C10.9439 0.002025 9.60203 1.34385 9.6 3V5.4H1.8C0.80595 5.4 0 6.20595 0 7.2V20.5559C0.0017819 20.9273 0.117925 21.2891 0.332633 21.5922C0.547341 21.8953 0.850193 22.1249 1.2 22.2498V30.6C1.2 31.5941 2.00595 32.4 3 32.4H33C33.9941 32.4 34.8 31.5941 34.8 30.6V22.2504C35.1499 22.1254 35.4527 21.8957 35.6674 21.5925C35.8821 21.2893 35.9983 20.9274 36 20.5559V7.2C36 6.20595 35.194 5.4 34.2 5.4ZM10.8 3C10.8 2.00595 11.606 1.2 12.6 1.2H23.4C24.3941 1.2 25.2 2.00595 25.2 3V5.4H24V3C24 2.84087 23.9368 2.68826 23.8243 2.57574C23.7117 2.46321 23.5591 2.4 23.4 2.4H12.6C12.4409 2.4 12.2883 2.46321 12.1757 2.57574C12.0632 2.68826 12 2.84087 12 3V5.4H10.8V3ZM22.8 5.4H13.2V3.6H22.8V5.4ZM33.6 30.6C33.6 30.7591 33.5368 30.9117 33.4243 31.0243C33.3117 31.1368 33.1591 31.2 33 31.2H3C2.84087 31.2 2.68826 31.1368 2.57574 31.0243C2.46321 30.9117 2.4 30.7591 2.4 30.6V22.4561L15.6 24.2766V25.8C15.6 26.7941 16.406 27.6 17.4 27.6H18.6C19.5941 27.6 20.4 26.7941 20.4 25.8V24.2765L33.6 22.4561V30.6ZM19.2 25.8C19.2 25.9591 19.1368 26.1117 19.0243 26.2243C18.9117 26.3368 18.7591 26.4 18.6 26.4H17.4C17.2409 26.4 17.0883 26.3368 16.9757 26.2243C16.8632 26.1117 16.8 25.9591 16.8 25.8V22.2C16.8 22.0409 16.8632 21.8883 16.9757 21.7757C17.0883 21.6632 17.2409 21.6 17.4 21.6H18.6C18.7591 21.6 18.9117 21.6632 19.0243 21.7757C19.1368 21.8883 19.2 22.0409 19.2 22.2V25.8ZM34.8 20.5559C34.8002 20.7005 34.748 20.8404 34.6532 20.9497C34.5584 21.059 34.4273 21.1303 34.2841 21.1506L34.1177 21.1735L20.4 23.0651V22.2C20.4 21.206 19.5941 20.4 18.6 20.4H17.4C16.406 20.4 15.6 21.206 15.6 22.2V23.0651L1.71652 21.1506C1.57317 21.1304 1.44193 21.0591 1.34701 20.9498C1.25209 20.8405 1.19987 20.7006 1.2 20.5559V7.2C1.2 7.04087 1.26321 6.88826 1.37574 6.77574C1.48826 6.66321 1.64087 6.6 1.8 6.6H34.2C34.3591 6.6 34.5117 6.66321 34.6243 6.77574C34.7368 6.88826 34.8 7.04087 34.8 7.2V20.5559Z" fill="#FF3179"/>
</g>
</g>
</svg>
