<svg width="36" height="36" viewBox="0 0 36 36" fill="none" xmlns="http://www.w3.org/2000/svg">
<g id="svgviewer-output (45) 2">
<g id="Group">
<path id="Vector" d="M31.0103 14.8812H30.9212V12.698C30.9212 5.6851 25.2362 0 18.2232 0C11.2102 0 5.52518 5.6851 5.52518 12.698V14.8812H4.99056C3.03015 14.8812 1.51532 16.6188 1.51532 18.6238V24.1931C1.46594 26.1363 3.00132 27.7517 4.9446 27.8011C4.95995 27.8015 4.97521 27.8018 4.99056 27.802H8.28757C8.75456 27.78 9.11538 27.3836 9.09338 26.9166C9.09261 26.8998 9.09133 26.883 9.08954 26.8663V15.9504C9.08954 15.4158 8.77768 14.8811 8.28757 14.8811H7.30736V12.6979C7.30736 6.66932 12.1946 1.7821 18.2232 1.7821C24.2518 1.7821 29.139 6.66932 29.139 12.6979V14.8811H28.1588C27.6687 14.8811 27.3569 15.4157 27.3569 15.9504V26.8663C27.3071 27.3311 27.6437 27.7483 28.1085 27.798C28.1252 27.7998 28.142 27.8011 28.1588 27.8019H29.1835L29.0944 27.9355C28.4351 28.8118 27.5801 29.5219 26.5977 30.0092C25.6153 30.4965 24.5326 30.7476 23.436 30.7424C22.9492 28.3555 20.6196 26.8151 18.2327 27.302C16.1915 27.7182 14.7198 29.5058 14.7034 31.589C14.7277 34.0322 16.7154 36 19.1588 35.9998C20.3684 35.9802 21.5212 35.4838 22.3667 34.6186C22.9371 34.0345 23.3109 33.2868 23.436 32.48C24.8093 32.4852 26.1649 32.1697 27.3947 31.5586C28.6246 30.9476 29.6948 30.0578 30.5201 28.9602L31.3667 27.7127C33.2825 27.579 34.4855 26.3761 34.4855 24.6384V19.0691C34.4856 17.1535 33.0599 14.8812 31.0103 14.8812ZM7.30736 26.0198H4.99056C4.03116 25.9964 3.27234 25.1998 3.29571 24.2404C3.29613 24.2246 3.29673 24.2088 3.2975 24.193V18.6237C3.2975 17.599 4.01035 16.6633 4.99056 16.6633H7.30736V26.0198ZM21.0747 33.3712C20.8304 33.6361 20.5343 33.8479 20.2048 33.9936C19.8752 34.1392 19.5192 34.2155 19.1589 34.2178C17.7093 34.1948 16.5329 33.0381 16.4856 31.5891C16.485 30.1373 17.6615 28.9599 19.1133 28.9593C20.5651 28.9587 21.7424 30.1351 21.743 31.5869V31.5891C21.7614 31.9162 21.7114 32.2436 21.5964 32.5505C21.4813 32.8573 21.3037 33.1368 21.0747 33.3712ZM32.7034 24.6386C32.7034 25.8415 31.545 26.0198 31.0103 26.0198H29.139V16.6634H31.0103C31.9905 16.6634 32.7034 18.0446 32.7034 19.0693V24.6386Z" fill="#FF3179"/>
</g>
</g>
</svg>
