<svg width="36" height="36" viewBox="0 0 36 36" fill="none" xmlns="http://www.w3.org/2000/svg">
<g id="svgviewer-output (42) 2">
<g id="Group">
<path id="Vector" d="M29.919 22.7024H29.9172C30.7539 21.7691 31.1911 20.3835 31.1911 19.0454C31.1911 18.0539 30.7972 17.1029 30.0961 16.4018C29.395 15.7007 28.4441 15.3068 27.4525 15.3068C26.461 15.3068 25.5101 15.7007 24.8089 16.4018C24.1078 17.1029 23.7139 18.0539 23.7139 19.0454C23.7139 20.1152 24.0257 21.2603 24.5479 22.1079C24.6768 22.3182 24.8236 22.5171 24.9865 22.7024H24.984C24.1138 22.7005 23.2654 22.974 22.5602 23.4837C22.2427 23.431 21.9215 23.4044 21.5996 23.404H20.972C21.3605 23.0541 21.6985 22.6518 21.9762 22.2087C22.7518 20.9903 23.1966 19.3878 23.1966 17.8119C23.1991 17.128 23.0666 16.4503 22.8066 15.8178C22.5466 15.1852 22.1643 14.6102 21.6816 14.1257C21.1989 13.6412 20.6253 13.2568 19.9937 12.9945C19.3621 12.7322 18.6849 12.5972 18.001 12.5972C17.3171 12.5972 16.6399 12.7322 16.0083 12.9945C15.3767 13.2568 14.8031 13.6412 14.3204 14.1257C13.8377 14.6102 13.4554 15.1852 13.1954 15.8178C12.9355 16.4503 12.8029 17.128 12.8054 17.8119C12.8054 19.3263 13.2459 20.9455 13.9837 22.1432C14.2674 22.6119 14.6179 23.0367 15.0243 23.4041H14.4007C14.0789 23.4045 13.7576 23.4312 13.4402 23.4839C12.7349 22.9742 11.8865 22.7007 11.0163 22.7025H11.0138C11.1768 22.5173 11.3235 22.3184 11.4524 22.108C11.9746 21.2602 12.2864 20.1154 12.2864 19.0455C12.2864 18.0543 11.8926 17.1036 11.1917 16.4027C10.4907 15.7017 9.54007 15.3079 8.5488 15.3079C7.55753 15.3079 6.60685 15.7017 5.90592 16.4027C5.20498 17.1036 4.8112 18.0543 4.8112 19.0455C4.8112 20.3836 5.24854 21.7692 6.08449 22.7025H6.08132C3.89397 22.7025 2.1145 24.373 2.1145 26.4262V30.7434C2.1145 30.8926 2.17377 31.0356 2.27925 31.1411C2.38474 31.2466 2.52782 31.3059 2.677 31.3059H8.87153V34.875C8.87153 35.0242 8.9308 35.1673 9.03629 35.2727C9.14177 35.3782 9.28485 35.4375 9.43403 35.4375H26.5671C26.7163 35.4375 26.8593 35.3782 26.9648 35.2727C27.0703 35.1673 27.1296 35.0242 27.1296 34.875V31.3057H33.3253C33.4745 31.3057 33.6176 31.2465 33.7231 31.141C33.8285 31.0355 33.8878 30.8924 33.8878 30.7432V26.426C33.8878 24.3728 32.1074 22.7024 29.919 22.7024ZM24.8389 19.0454C24.8389 18.3522 25.1143 17.6875 25.6044 17.1973C26.0946 16.7072 26.7594 16.4318 27.4525 16.4318C28.1457 16.4318 28.8105 16.7072 29.3006 17.1973C29.7908 17.6875 30.0661 18.3522 30.0661 19.0454C30.0661 20.4593 29.356 22.7024 27.4515 22.7024C25.5483 22.7024 24.8389 20.4593 24.8389 19.0454ZM18 13.74C19.0795 13.7413 20.1144 14.1706 20.8777 14.9339C21.641 15.6972 22.0704 16.7322 22.0716 17.8116C22.0716 17.841 22.0704 17.8703 22.07 17.8997C20.5025 17.7209 19.1496 17.3723 17.3225 15.9398C17.2326 15.8694 17.1234 15.8279 17.0093 15.8211C16.8953 15.8142 16.7819 15.8422 16.6842 15.9014L13.9387 17.5641C14.0025 16.5298 14.458 15.5586 15.2125 14.8483C15.967 14.1379 16.9637 13.7416 18 13.74ZM14.9414 21.553C14.4718 20.7906 14.1429 19.824 14.0042 18.839L16.9389 17.0622C18.8463 18.4775 20.3392 18.8369 21.9703 19.0205C21.8151 19.9679 21.4864 20.8825 21.0271 21.6042C20.5045 22.4253 19.555 23.4042 17.9999 23.4042C16.7273 23.404 15.6981 22.7812 14.9414 21.553ZM5.93585 19.0454C5.93585 18.7023 6.00342 18.3626 6.13472 18.0456C6.26601 17.7286 6.45846 17.4406 6.70106 17.198C6.94366 16.9554 7.23167 16.763 7.54865 16.6317C7.86562 16.5004 8.20536 16.4328 8.54845 16.4328C8.89154 16.4328 9.23127 16.5004 9.54825 16.6317C9.86522 16.763 10.1532 16.9554 10.3958 17.198C10.6384 17.4406 10.8309 17.7286 10.9622 18.0456C11.0935 18.3626 11.161 18.7023 11.161 19.0454C11.161 20.4593 10.4517 22.7024 8.54845 22.7024C6.64516 22.7024 5.93585 20.4593 5.93585 19.0454ZM3.23915 30.1807V26.426C3.23915 24.9931 4.51399 23.8274 6.08097 23.8274H11.016C11.319 23.8273 11.6203 23.8723 11.91 23.961C10.109 24.8151 8.87097 26.5636 8.87097 28.5789V30.1809L3.23915 30.1807ZM26.004 34.3125H23.1527V30.8448C23.1527 30.6956 23.0934 30.5526 22.988 30.4471C22.8825 30.3416 22.7394 30.2823 22.5902 30.2823C22.441 30.2823 22.2979 30.3416 22.1925 30.4471C22.087 30.5526 22.0277 30.6956 22.0277 30.8448V34.3125H13.9743V30.8448C13.9743 30.6956 13.915 30.5526 13.8095 30.4471C13.704 30.3416 13.5609 30.2823 13.4118 30.2823C13.2626 30.2823 13.1195 30.3416 13.014 30.4471C12.9085 30.5526 12.8493 30.6956 12.8493 30.8448V34.3125H9.99597V28.5787C9.99597 26.3457 11.9718 24.529 14.4003 24.529H21.6C24.0286 24.529 26.0044 26.3457 26.0044 28.5787L26.004 34.3125ZM32.7628 30.1807H27.129V28.5787C27.129 26.5634 25.891 24.8149 24.09 23.9607C24.3797 23.8721 24.681 23.8271 24.984 23.8271H29.919C31.487 23.8271 32.7628 24.9929 32.7628 26.4258V30.1807ZM14.8744 7.26033L14.4356 10.3049C14.421 10.4062 14.4343 10.5097 14.4742 10.604C14.514 10.6983 14.5789 10.78 14.6618 10.8402C14.7446 10.9004 14.8423 10.9368 14.9444 10.9455C15.0464 10.9543 15.1489 10.935 15.2408 10.8897L18 9.53121L20.7612 10.8899C20.8531 10.9351 20.9555 10.9544 21.0576 10.9456C21.1596 10.9369 21.2573 10.9005 21.3402 10.8403C21.423 10.7801 21.4879 10.6984 21.5277 10.6041C21.5676 10.5097 21.5809 10.4063 21.5663 10.3049L21.1274 7.2604L23.2724 5.05512C23.3438 4.98172 23.3939 4.89023 23.4171 4.7905C23.4403 4.69078 23.4359 4.5866 23.4043 4.48921C23.3726 4.39182 23.315 4.30491 23.2377 4.23784C23.1603 4.17078 23.0661 4.1261 22.9652 4.10864L19.933 3.58376L18.4975 0.862664C18.4497 0.772096 18.3781 0.696278 18.2905 0.643382C18.2028 0.590487 18.1024 0.562522 18 0.5625C17.8976 0.562522 17.7971 0.590503 17.7094 0.643425C17.6218 0.696346 17.5502 0.7722 17.5025 0.862805L16.0689 3.5839L13.0369 4.10871C12.936 4.12617 12.8418 4.17085 12.7644 4.23791C12.6871 4.30498 12.6295 4.39189 12.5978 4.48928C12.5662 4.58667 12.5618 4.69085 12.585 4.79057C12.6082 4.8903 12.6583 4.98179 12.7297 5.05519L14.8744 7.26033ZM16.5333 4.64505C16.6182 4.63036 16.6985 4.59639 16.7682 4.54575C16.8378 4.49511 16.8949 4.42916 16.935 4.35298L18 2.33114L19.0668 4.35326C19.107 4.42937 19.1641 4.49526 19.2337 4.54585C19.3033 4.59643 19.3836 4.63037 19.4684 4.64505L21.7221 5.03515L20.1281 6.67434C20.068 6.73609 20.0229 6.81081 19.9963 6.89273C19.9697 6.97465 19.9623 7.06159 19.9746 7.14684L20.3007 9.40943L18.2483 8.39953C18.1711 8.36149 18.0861 8.34171 17.9999 8.34171C17.9138 8.34171 17.8288 8.36149 17.7515 8.39953L15.7013 9.40901L16.0274 7.14677C16.0397 7.06153 16.0322 6.97461 16.0056 6.8927C15.979 6.81079 15.9339 6.73608 15.8739 6.67434L14.2795 5.03515L16.5333 4.64505ZM4.43439 8.20905L4.13296 10.3051C4.11839 10.4065 4.13176 10.5099 4.17165 10.6043C4.21153 10.6986 4.27641 10.7802 4.35928 10.8404C4.44216 10.9006 4.53989 10.937 4.64193 10.9457C4.74397 10.9544 4.84645 10.935 4.93832 10.8898L6.83824 9.95386L8.73625 10.8896C8.82811 10.9349 8.9306 10.9543 9.03265 10.9456C9.13469 10.9369 9.23244 10.9005 9.31533 10.8404C9.39822 10.7802 9.46312 10.6986 9.50302 10.6043C9.54292 10.5099 9.55631 10.4065 9.54175 10.3051L9.24032 8.20927L10.7175 6.6915C10.7889 6.61811 10.839 6.52663 10.8622 6.4269C10.8855 6.32718 10.881 6.223 10.8494 6.1256C10.8178 6.0282 10.7602 5.94127 10.6829 5.87419C10.6055 5.80712 10.5113 5.76243 10.4104 5.74495L8.3231 5.38355L7.33591 3.51148C7.28816 3.42094 7.21661 3.34515 7.12898 3.29227C7.04134 3.23939 6.94094 3.21142 6.83859 3.21138C6.73626 3.21138 6.63587 3.23929 6.54822 3.2921C6.46058 3.34492 6.389 3.42065 6.3412 3.51113L5.3519 5.38355L3.26629 5.74502C3.16543 5.7625 3.07126 5.80717 2.99391 5.87422C2.91656 5.94127 2.85897 6.02815 2.82735 6.1255C2.79573 6.22286 2.79128 6.327 2.81447 6.4267C2.83766 6.5264 2.88762 6.61788 2.95896 6.69129L4.43439 8.20905ZM5.81624 6.44484C5.90097 6.43017 5.9812 6.39627 6.05077 6.34575C6.12035 6.29522 6.17742 6.22942 6.21759 6.1534L6.83788 4.97918L7.45663 6.1534C7.49678 6.22955 7.55386 6.29547 7.62349 6.34608C7.69312 6.39669 7.77344 6.43065 7.85826 6.44534L9.16685 6.67188L8.24076 7.62342C8.1807 7.68514 8.13562 7.75983 8.10898 7.84172C8.08234 7.92362 8.07487 8.01054 8.08713 8.09578L8.27599 9.40901L7.08679 8.82274C7.00945 8.78463 6.92439 8.76481 6.83817 8.76481C6.75195 8.76481 6.66688 8.78463 6.58954 8.82274L5.3981 9.40964L5.58703 8.09592C5.59928 8.01073 5.59182 7.92386 5.56522 7.84201C5.53862 7.76015 5.49359 7.68549 5.4336 7.62377L4.50864 6.67146L5.81624 6.44484ZM26.7597 8.20905L26.4586 10.3051C26.444 10.4065 26.4574 10.5099 26.4973 10.6043C26.5372 10.6986 26.602 10.7802 26.6849 10.8404C26.7678 10.9006 26.8655 10.937 26.9676 10.9457C27.0696 10.9544 27.1721 10.935 27.2639 10.8898L29.1639 9.95386L31.064 10.8898C31.1559 10.9351 31.2584 10.9544 31.3605 10.9457C31.4626 10.9369 31.5603 10.9005 31.6432 10.8403C31.7261 10.78 31.791 10.6983 31.8308 10.6039C31.8706 10.5095 31.8839 10.406 31.8693 10.3046L31.5662 8.20934L33.0431 6.69178C33.1146 6.6184 33.1646 6.52691 33.1878 6.42718C33.2111 6.32746 33.2067 6.22328 33.1751 6.12588C33.1435 6.02848 33.0859 5.94155 33.0085 5.87447C32.9311 5.8074 32.8369 5.76271 32.736 5.74523L30.6487 5.38383L29.6612 3.51148C29.6134 3.42093 29.5419 3.34513 29.4542 3.29225C29.3666 3.23937 29.2662 3.21141 29.1638 3.21138C29.0615 3.21139 28.9611 3.2393 28.8735 3.29212C28.7858 3.34494 28.7143 3.42066 28.6665 3.51113L27.6774 5.38355L25.5918 5.74502C25.4909 5.76249 25.3967 5.80715 25.3194 5.8742C25.242 5.94124 25.1844 6.02812 25.1528 6.12548C25.1212 6.22284 25.1167 6.32698 25.1399 6.42668C25.1631 6.52639 25.213 6.61788 25.2844 6.69129L26.7597 8.20905ZM28.1415 6.44484C28.2262 6.43016 28.3065 6.39625 28.3761 6.34572C28.4456 6.29518 28.5027 6.22936 28.5429 6.15333L29.1632 4.97911L29.7819 6.15333C29.8221 6.22948 29.8791 6.2954 29.9488 6.34601C30.0184 6.39662 30.0987 6.43058 30.1835 6.44527L31.4922 6.67181L30.566 7.62335C30.5059 7.68513 30.4608 7.7599 30.4342 7.84189C30.4076 7.92388 30.4001 8.01089 30.4125 8.0962L30.6023 9.40894L29.4119 8.82253C29.3346 8.78447 29.2495 8.76468 29.1633 8.76468C29.0771 8.76468 28.9921 8.78447 28.9147 8.82253L27.7234 9.40936L27.9123 8.09578C27.9246 8.01058 27.9171 7.9237 27.8905 7.84183C27.8639 7.75996 27.8189 7.68529 27.7589 7.62356L26.8339 6.67146L28.1415 6.44484Z" fill="#FF3179"/>
</g>
</g>
</svg>
