<svg width="36" height="36" viewBox="0 0 36 36" fill="none" xmlns="http://www.w3.org/2000/svg">
<g id="svgviewer-output (43) 1">
<g id="Group">
<path id="Vector" d="M20.8059 14.453C20.9647 14.5589 21.1765 14.5059 21.3882 14.4C21.5471 14.2942 21.6529 14.0824 21.6 13.8706L21.0706 10.7471L23.3471 8.57651C23.5059 8.41768 23.5588 8.20592 23.5059 8.04709C23.4529 7.83533 23.2941 7.72945 23.0824 7.67651L19.9588 7.20003L18.5824 4.39415C18.4235 4.02356 17.7882 4.02356 17.6294 4.39415L16.2529 7.20003L13.1294 7.67651C12.9177 7.72945 12.7588 7.83533 12.7059 8.04709C12.6529 8.25886 12.7059 8.47062 12.8647 8.57651L15.1412 10.7471L14.6118 13.8706C14.5588 14.0824 14.6647 14.2942 14.8235 14.4C14.9824 14.5059 15.1941 14.5589 15.4059 14.453L18.2118 12.9706L20.8059 14.453ZM15.6706 13.0236L16.0941 10.6942C16.1471 10.5353 16.0412 10.3236 15.9353 10.2177L14.2412 8.57651L16.5706 8.25886C16.7294 8.25886 16.8882 8.10003 16.9941 7.99415L18.0529 5.87651L19.1118 7.99415C19.1647 8.15298 19.3235 8.25886 19.5353 8.25886L21.8647 8.57651L20.1706 10.2177C20.0647 10.3236 20.0118 10.5353 20.0118 10.6942L20.4353 13.0236L18.3706 11.9118C18.3177 11.8589 18.2118 11.8589 18.1059 11.8589C18 11.8589 17.9471 11.8589 17.8412 11.9118L15.6706 13.0236Z" fill="#FF3179"/>
<path id="Vector_2" d="M32.7705 34.4118H26.4176V29.5412C26.4176 29.2235 26.2058 29.0118 25.8882 29.0118H23.4529V26.3118C23.4529 25.9941 23.2411 25.7824 22.9235 25.7824H19.9588V19.8C19.9588 19.7471 20.0647 19.6412 20.1176 19.6412C22.6588 18.9 24.9352 16.8353 26.4176 13.8706C29.8058 12.0706 31.8705 8.57648 31.8705 4.71177V4.02354C31.8705 3.70589 31.6588 3.49412 31.3411 3.49412H28.4823C28.4823 2.64707 28.4294 1.5353 28.3764 1.00589C28.3235 0.741184 28.1117 0.529419 27.847 0.529419H8.09995C7.83525 0.529419 7.62348 0.741184 7.57054 1.00589C7.5176 1.5353 7.46466 2.64707 7.46466 3.49412H4.55289C4.23525 3.49412 4.02348 3.70589 4.02348 4.02354V4.76471C4.02348 8.68236 6.08819 12.1765 9.47642 13.9235C11.0117 16.8882 13.2352 18.9 15.7764 19.6941C15.8823 19.6941 15.9352 19.8 15.9352 19.8529V25.8353H12.9705C12.6529 25.8353 12.4411 26.0471 12.4411 26.3647V29.0647H10.0058C9.68819 29.0647 9.47642 29.2765 9.47642 29.5941V34.4118H3.22936C2.91172 34.4118 2.69995 34.6235 2.69995 34.9412C2.69995 35.2588 2.91172 35.4706 3.22936 35.4706H32.7705C33.0882 35.4706 33.3 35.2588 33.3 34.9412C33.3 34.6235 33.0352 34.4118 32.7705 34.4118ZM30.9176 4.76471C30.9176 7.72942 29.5411 10.4824 27.2647 12.1765C28.1117 9.95295 28.5882 7.35883 28.5882 4.55295H30.9176V4.76471ZM5.0823 4.76471V4.55295H7.41172C7.41172 7.30589 7.88819 9.90001 8.73524 12.1235C6.45877 10.4294 5.0823 7.72942 5.0823 4.76471ZM16.147 18.6353C13.8176 17.9471 11.7529 16.0412 10.3764 13.2882C9.15877 10.8529 8.47054 7.8353 8.47054 4.55295C8.47054 3.81177 8.52348 2.38236 8.57642 1.58824H27.4235C27.4764 2.4353 27.5294 3.86471 27.5294 4.55295C27.5294 7.8353 26.8941 10.8529 25.6764 13.2882C24.3 16.0412 22.2352 17.9471 19.9058 18.6353C19.3235 18.7941 18.9529 19.2706 18.9529 19.8V25.7824H17.0999V19.8C17.047 19.2706 16.6764 18.7941 16.147 18.6353ZM13.5529 26.8941H22.3941V29.0647H13.5529V26.8941ZM10.6411 34.4118V30.0706H25.4117V34.4118H10.6411Z" fill="#FF3179"/>
</g>
</g>
</svg>
