<svg width="17" height="21" viewBox="0 0 17 21" fill="none" xmlns="http://www.w3.org/2000/svg">
<g id="Group">
<path id="Vector" d="M16.5 20.5H15.5V16C15.5 15.337 15.2366 14.7011 14.7678 14.2322C14.2989 13.7634 13.663 13.5 13 13.5H4C3.33696 13.5 2.70107 13.7634 2.23223 14.2322C1.76339 14.7011 1.5 15.337 1.5 16V20.5H0.5V16C0.5 15.0717 0.868749 14.1815 1.52513 13.5251C2.1815 12.8687 3.07174 12.5 4 12.5H13C13.9283 12.5 14.8185 12.8687 15.4749 13.5251C16.1313 14.1815 16.5 15.0717 16.5 16V20.5ZM8.5 11.5C7.4122 11.5 6.34883 11.1774 5.44436 10.5731C4.53989 9.96873 3.83494 9.10975 3.41866 8.10476C3.00238 7.09976 2.89346 5.9939 3.10568 4.927C3.3179 3.86011 3.84172 2.8801 4.61091 2.11091C5.3801 1.34172 6.36011 0.817898 7.427 0.60568C8.4939 0.393461 9.59976 0.502379 10.6048 0.918661C11.6098 1.33494 12.4687 2.03989 13.0731 2.94436C13.6774 3.84883 14 4.9122 14 6C14 7.45869 13.4205 8.85764 12.3891 9.88909C11.3576 10.9205 9.95869 11.5 8.5 11.5ZM8.5 1.5C7.60998 1.5 6.73995 1.76392 5.99993 2.25839C5.25991 2.75285 4.68314 3.45566 4.34254 4.27792C4.00195 5.10019 3.91283 6.00499 4.08647 6.87791C4.2601 7.75082 4.68868 8.55264 5.31802 9.18198C5.94736 9.81132 6.74918 10.2399 7.62209 10.4135C8.49501 10.5872 9.39981 10.4981 10.2221 10.1575C11.0443 9.81686 11.7471 9.24009 12.2416 8.50006C12.7361 7.76004 13 6.89001 13 6C13 4.80652 12.5259 3.66193 11.682 2.81802C10.8381 1.9741 9.69347 1.5 8.5 1.5Z" fill="white"/>
</g>
</svg>
