<svg width="25" height="25" viewBox="0 0 25 25" fill="none" xmlns="http://www.w3.org/2000/svg">
<g id="svgviewer-output (44) 1">
<g id="Group">
<path id="Vector" d="M18.3594 21.875C18.4414 24.457 22.1836 24.457 22.2656 21.875C22.1836 19.293 18.4414 19.293 18.3594 21.875ZM20.3125 20.7031C20.6233 20.7031 20.9214 20.8266 21.1411 21.0464C21.3609 21.2661 21.4844 21.5642 21.4844 21.875C21.4844 22.1858 21.3609 22.4839 21.1411 22.7036C20.9214 22.9234 20.6233 23.0469 20.3125 23.0469C20.0017 23.0469 19.7036 22.9234 19.4839 22.7036C19.2641 22.4839 19.1406 22.1858 19.1406 21.875C19.1406 21.5642 19.2641 21.2661 19.4839 21.0464C19.7036 20.8266 20.0017 20.7031 20.3125 20.7031ZM6.64062 21.875C6.72266 24.457 10.4648 24.457 10.5469 21.875C10.4648 19.293 6.72266 19.293 6.64062 21.875ZM8.59375 20.7031C8.90455 20.7031 9.20262 20.8266 9.42239 21.0464C9.64216 21.2661 9.76562 21.5642 9.76562 21.875C9.76562 22.1858 9.64216 22.4839 9.42239 22.7036C9.20262 22.9234 8.90455 23.0469 8.59375 23.0469C8.28295 23.0469 7.98488 22.9234 7.76511 22.7036C7.54534 22.4839 7.42188 22.1858 7.42188 21.875C7.42188 21.5642 7.54534 21.2661 7.76511 21.0464C7.98488 20.8266 8.28295 20.7031 8.59375 20.7031Z" fill="white"/>
<path id="Vector_2" d="M8.20312 17.5781H20.3125C20.3989 17.5784 20.4833 17.5513 20.5534 17.5008C20.6236 17.4503 20.676 17.3789 20.7031 17.2969L23.8281 6.75C23.8455 6.6905 23.8485 6.6277 23.8369 6.56681C23.8252 6.50592 23.7992 6.44868 23.761 6.39982C23.7229 6.35097 23.6736 6.3119 23.6174 6.28584C23.5611 6.25979 23.4994 6.24751 23.4375 6.25H6.25L5.46875 3.07812V2.34375C5.46875 2.03295 5.34528 1.73488 5.12552 1.51511C4.90575 1.29534 4.60768 1.17188 4.29687 1.17188H2.34375C2.03295 1.17188 1.73488 1.29534 1.51511 1.51511C1.29534 1.73488 1.17188 2.03295 1.17188 2.34375C1.17188 2.65455 1.29534 2.95262 1.51511 3.17239C1.73488 3.39216 2.03295 3.51562 2.34375 3.51562H4.77344L8.09766 16.7969C5.87109 17.1055 6.33203 20.1797 8.59375 19.9219H21.875C21.9786 19.9219 22.078 19.8807 22.1512 19.8075C22.2245 19.7342 22.2656 19.6348 22.2656 19.5312C22.2656 19.4277 22.2245 19.3283 22.1512 19.255C22.078 19.1818 21.9786 19.1406 21.875 19.1406H8.20312C7.99592 19.1406 7.79721 19.0583 7.6507 18.9118C7.50418 18.7653 7.42187 18.5666 7.42187 18.3594C7.42187 18.1522 7.50418 17.9535 7.6507 17.8069C7.79721 17.6604 7.99592 17.5781 8.20312 17.5781ZM4.6875 2.73438H2.34375C2.24015 2.73438 2.14079 2.69322 2.06754 2.61996C1.99428 2.54671 1.95312 2.44735 1.95312 2.34375C1.95312 2.24015 1.99428 2.14079 2.06754 2.06754C2.14079 1.99428 2.24015 1.95312 2.34375 1.95312H4.29687C4.40048 1.95312 4.49983 1.99428 4.57309 2.06754C4.64634 2.14079 4.6875 2.24015 4.6875 2.34375V2.73438ZM8.89844 16.7969L8.50781 15.2344H20.4844L20.0195 16.7969H8.89844ZM22.9141 7.03125L20.7031 14.4531H8.30078L6.45703 7.03125H22.9141ZM8.87109 22.1523C8.94465 22.0788 8.98597 21.979 8.98597 21.875C8.98597 21.771 8.94465 21.6712 8.87109 21.5977C8.79754 21.5241 8.69777 21.4828 8.59375 21.4828C8.48973 21.4828 8.38996 21.5241 8.31641 21.5977C8.24285 21.6712 8.20153 21.771 8.20153 21.875C8.20153 21.979 8.24285 22.0788 8.31641 22.1523C8.38996 22.2259 8.48973 22.2672 8.59375 22.2672C8.69777 22.2672 8.79754 22.2259 8.87109 22.1523ZM20.5898 22.1523C20.6634 22.0788 20.7047 21.979 20.7047 21.875C20.7047 21.771 20.6634 21.6712 20.5898 21.5977C20.5163 21.5241 20.4165 21.4828 20.3125 21.4828C20.2085 21.4828 20.1087 21.5241 20.0352 21.5977C19.9616 21.6712 19.9203 21.771 19.9203 21.875C19.9203 21.979 19.9616 22.0788 20.0352 22.1523C20.1087 22.2259 20.2085 22.2672 20.3125 22.2672C20.4165 22.2672 20.5163 22.2259 20.5898 22.1523Z" fill="white"/>
<path id="Vector_3" d="M9.09767 13.5586C9.17122 13.6322 9.27099 13.6735 9.37501 13.6735C9.47904 13.6735 9.5788 13.6322 9.65235 13.5586C9.72591 13.485 9.76723 13.3853 9.76723 13.2813C9.76723 13.1772 9.72591 13.0775 9.65235 13.0039C9.5788 12.9304 9.47904 12.889 9.37501 12.889C9.27099 12.889 9.17122 12.9304 9.09767 13.0039C9.02411 13.0775 8.98279 13.1772 8.98279 13.2813C8.98279 13.3853 9.02411 13.485 9.09767 13.5586ZM11.2149 13.5586C11.2884 13.485 11.3297 13.3853 11.3297 13.2813C11.3297 13.1772 11.2884 13.0775 11.2149 13.0039C11.1413 12.9304 11.0415 12.889 10.9375 12.889C10.8335 12.889 10.7337 12.9304 10.6602 13.0039C10.5866 13.0775 10.5453 13.1772 10.5453 13.2813C10.5453 13.3853 10.5866 13.485 10.6602 13.5586C10.7337 13.6322 10.8335 13.6735 10.9375 13.6735C11.0415 13.6735 11.1413 13.6322 11.2149 13.5586Z" fill="white"/>
</g>
</g>
</svg>
