<svg width="16" height="15" viewBox="0 0 16 15" fill="none" xmlns="http://www.w3.org/2000/svg">
<g id="Group">
<path id="Vector" d="M5.155 9.37512H5.15575C5.15637 9.37512 5.157 9.375 5.15759 9.375H13.6562C13.7581 9.37498 13.8572 9.34179 13.9385 9.28045C14.0198 9.21911 14.0789 9.13296 14.1069 9.03503L15.9819 2.47253C16.0019 2.40278 16.0053 2.32936 15.9921 2.25804C15.9788 2.18673 15.9492 2.11946 15.9055 2.06153C15.8618 2.0036 15.8053 1.9566 15.7403 1.92423C15.6754 1.89187 15.6038 1.87501 15.5312 1.875H4.07397L3.73891 0.367063C3.71575 0.262947 3.65779 0.169838 3.57458 0.103104C3.49138 0.0363705 3.38791 1.44052e-06 3.28125 0L0.46875 0C0.209844 0 0 0.209844 0 0.46875C0 0.727656 0.209844 0.9375 0.46875 0.9375H2.90528C2.96459 1.20469 4.50878 8.15369 4.59766 8.55344C4.0995 8.77 3.75 9.26675 3.75 9.84375C3.75 10.6191 4.38088 11.25 5.15625 11.25H13.6562C13.9152 11.25 14.125 11.0402 14.125 10.7812C14.125 10.5223 13.9152 10.3125 13.6562 10.3125H5.15625C4.89781 10.3125 4.6875 10.1022 4.6875 9.84375C4.6875 9.58569 4.89709 9.37572 5.155 9.37512ZM14.9098 2.8125L13.3026 8.4375H5.53225L4.28225 2.8125H14.9098ZM4.6875 12.6562C4.6875 13.4317 5.31838 14.0625 6.09375 14.0625C6.86912 14.0625 7.5 13.4316 7.5 12.6562C7.5 11.8809 6.86912 11.25 6.09375 11.25C5.31838 11.25 4.6875 11.8809 4.6875 12.6562ZM6.09375 12.1875C6.35219 12.1875 6.5625 12.3978 6.5625 12.6562C6.5625 12.9147 6.35219 13.125 6.09375 13.125C5.83531 13.125 5.625 12.9147 5.625 12.6562C5.625 12.3978 5.83531 12.1875 6.09375 12.1875ZM11.3125 12.6562C11.3125 13.4317 11.9434 14.0625 12.7188 14.0625C13.4941 14.0625 14.125 13.4316 14.125 12.6562C14.125 11.8809 13.4941 11.25 12.7188 11.25C11.9434 11.25 11.3125 11.8809 11.3125 12.6562ZM12.7188 12.1875C12.9772 12.1875 13.1875 12.3978 13.1875 12.6562C13.1875 12.9147 12.9772 13.125 12.7188 13.125C12.4603 13.125 12.25 12.9147 12.25 12.6562C12.25 12.3978 12.4603 12.1875 12.7188 12.1875Z" fill="#717171"/>
</g>
</svg>
