<svg width="52" height="28" viewBox="0 0 52 28" fill="none" xmlns="http://www.w3.org/2000/svg">
<g id="ICon">
<path id="Vector" d="M46.5416 6.70475C46.0861 6.13251 45.5071 5.67069 44.8479 5.35383C44.1888 5.03697 43.4664 4.87328 42.7351 4.875H37.375V1.625C37.375 0.728812 36.6462 0 35.75 0H8.125C7.22881 0 6.5 0.728812 6.5 1.625V4.875H2.4375C2.22201 4.875 2.01535 4.9606 1.86298 5.11298C1.7106 5.26535 1.625 5.47201 1.625 5.6875C1.625 5.90299 1.7106 6.10965 1.86298 6.26202C2.01535 6.4144 2.22201 6.5 2.4375 6.5H6.5V16.25H1.625C1.40951 16.25 1.20285 16.3356 1.05048 16.488C0.898102 16.6403 0.8125 16.847 0.8125 17.0625C0.8125 17.278 0.898102 17.4847 1.05048 17.637C1.20285 17.7894 1.40951 17.875 1.625 17.875H6.5V22.75C6.5 23.6462 7.22881 24.375 8.125 24.375H10.6446C11.0224 26.2267 12.6628 27.625 14.625 27.625C16.5872 27.625 18.2276 26.2267 18.6054 24.375H39.8946C40.2724 26.2267 41.9128 27.625 43.875 27.625C45.8372 27.625 47.4776 26.2267 47.8554 24.375H49.5625C50.9064 24.375 52 23.2814 52 21.9375V15.2376C51.9986 14.1309 51.6219 13.0574 50.9316 12.1924L46.5416 6.70475ZM14.625 26C13.2811 26 12.1875 24.9064 12.1875 23.5625C12.1875 22.2186 13.2811 21.125 14.625 21.125C15.9689 21.125 17.0625 22.2186 17.0625 23.5625C17.0625 24.9064 15.9689 26 14.625 26ZM43.875 26C42.5311 26 41.4375 24.9064 41.4375 23.5625C41.4375 22.2186 42.5311 21.125 43.875 21.125C45.2189 21.125 46.3125 22.2186 46.3125 23.5625C46.3125 24.9064 45.2189 26 43.875 26ZM50.375 21.9375C50.375 22.3852 50.0102 22.75 49.5625 22.75H47.8554C47.4776 20.8983 45.8372 19.5 43.875 19.5C41.9128 19.5 40.2724 20.8983 39.8946 22.75H37.375V12.1875C37.375 11.972 37.2894 11.7653 37.137 11.613C36.9847 11.4606 36.778 11.375 36.5625 11.375C36.347 11.375 36.1403 11.4606 35.988 11.613C35.8356 11.7653 35.75 11.972 35.75 12.1875V22.75H18.6054C18.2276 20.8983 16.5872 19.5 14.625 19.5C12.6628 19.5 11.0224 20.8983 10.6446 22.75H8.125V17.875H10.5625C10.778 17.875 10.9847 17.7894 11.137 17.637C11.2894 17.4847 11.375 17.278 11.375 17.0625C11.375 16.847 11.2894 16.6403 11.137 16.488C10.9847 16.3356 10.778 16.25 10.5625 16.25H8.125V6.5H19.5C19.7155 6.5 19.9222 6.4144 20.0745 6.26202C20.2269 6.10965 20.3125 5.90299 20.3125 5.6875C20.3125 5.47201 20.2269 5.26535 20.0745 5.11298C19.9222 4.9606 19.7155 4.875 19.5 4.875H8.125V1.625H35.75V9.75C35.75 9.96549 35.8356 10.1722 35.988 10.3245C36.1403 10.4769 36.347 10.5625 36.5625 10.5625C36.778 10.5625 36.9847 10.4769 37.137 10.3245C37.2894 10.1722 37.375 9.96549 37.375 9.75V6.5H42.7351C43.7279 6.5 44.6526 6.94444 45.2733 7.71956L49.6632 13.2072C50.123 13.7842 50.3739 14.4999 50.375 15.2376V21.9375Z" fill="#FF3179"/>
<path id="Vector_2" d="M17.875 10.5625H10.5625C10.347 10.5625 10.1403 10.6481 9.98798 10.8005C9.8356 10.9529 9.75 11.1595 9.75 11.375C9.75 11.5905 9.8356 11.7972 9.98798 11.9495C10.1403 12.1019 10.347 12.1875 10.5625 12.1875H17.875C18.0905 12.1875 18.2972 12.1019 18.4495 11.9495C18.6019 11.7972 18.6875 11.5905 18.6875 11.375C18.6875 11.1595 18.6019 10.9529 18.4495 10.8005C18.2972 10.6481 18.0905 10.5625 17.875 10.5625ZM0.8125 13H3.25C3.46549 13 3.67215 12.9144 3.82452 12.762C3.9769 12.6097 4.0625 12.403 4.0625 12.1875C4.0625 11.972 3.9769 11.7654 3.82452 11.613C3.67215 11.4606 3.46549 11.375 3.25 11.375H0.8125C0.597012 11.375 0.390349 11.4606 0.237976 11.613C0.0856024 11.7654 0 11.972 0 12.1875C0 12.403 0.0856024 12.6097 0.237976 12.762C0.390349 12.9144 0.597012 13 0.8125 13ZM43.9294 8.70919C43.7773 8.52604 43.5867 8.37872 43.3711 8.27774C43.1555 8.17676 42.9203 8.12461 42.6823 8.125H40.6242C40.1936 8.12565 39.7809 8.29697 39.4764 8.60143C39.172 8.90588 39.0006 9.31863 39 9.74919V13.0008C39 13.8962 39.7288 14.625 40.6242 14.625H45.3919C46.0289 14.625 46.5928 14.2667 46.8634 13.6898C47.1339 13.1129 47.0478 12.4508 46.6399 11.9616L43.9294 8.70919ZM40.625 13.0008L40.6242 9.75H42.6823L45.3984 13L40.625 13.0008Z" fill="#FF3179"/>
</g>
</svg>
