<svg width="16" height="14" viewBox="0 0 16 14" fill="none" xmlns="http://www.w3.org/2000/svg">
<g id="Group">
<path id="Vector" d="M1.28185 5.97759C1.36513 6.01091 1.46171 6.01091 1.54498 5.97094L4.14618 4.78857C4.3127 4.70864 4.38264 4.5088 4.30271 4.34229C4.22611 4.18242 4.03627 4.10913 3.87306 4.18242L2.05122 5.01173C2.9205 2.41053 5.34185 0.671967 8.12955 0.671967C11.0505 0.671967 13.605 2.6237 14.3411 5.41806C14.3877 5.59457 14.5709 5.70117 14.7474 5.65452C14.9239 5.6079 15.0305 5.42471 14.9839 5.24819C14.1712 2.16408 11.3535 0.00585938 8.12952 0.00585938C5.0554 0.00585938 2.38092 1.92428 1.41506 4.79526L0.649032 2.88018C0.592422 2.70698 0.402579 2.6104 0.229378 2.66701C0.0561769 2.72362 -0.0403997 2.91346 0.0162099 3.08666C0.0195508 3.1 0.0262016 3.1133 0.0328524 3.12663L1.09532 5.79109C1.12864 5.87437 1.19524 5.94431 1.28185 5.97759ZM15.9797 10.8935C15.9764 10.8869 15.9731 10.8802 15.9731 10.8736L14.9106 8.2091C14.8773 8.12582 14.8107 8.05588 14.7241 8.0226C14.6408 7.98928 14.5443 7.99262 14.461 8.02925L11.8598 9.21162C11.6899 9.28156 11.61 9.47805 11.6799 9.64791C11.7499 9.81777 11.9464 9.89771 12.1162 9.82776L12.1362 9.81777L13.9581 8.98846C13.0821 11.5897 10.6574 13.3282 7.87308 13.3282C4.95214 13.3282 2.39759 11.3765 1.66154 8.58213C1.61492 8.40562 1.43173 8.29902 1.25522 8.34567C1.07871 8.39229 0.972109 8.57548 1.01876 8.75199C1.82809 11.8394 4.64911 13.9943 7.87311 13.9943C10.9472 13.9943 13.6184 12.0759 14.5876 9.20493L15.3536 11.12C15.4169 11.2932 15.6067 11.3831 15.7799 11.3198C15.9531 11.2566 16.043 11.0667 15.9797 10.8935Z" fill="#717171"/>
</g>
</svg>
