<svg width="14" height="14" viewBox="0 0 14 14" fill="none" xmlns="http://www.w3.org/2000/svg">
<g id="Group">
<path id="Vector" d="M13.6284 5.00728L9.32459 4.34987L7.3955 0.240867C7.25142 -0.0659661 6.748 -0.0659661 6.60392 0.240867L4.67542 4.34987L0.371588 5.00728C0.292124 5.01949 0.217561 5.05336 0.156085 5.10517C0.0946088 5.15698 0.0485969 5.22472 0.0231013 5.30097C-0.00239435 5.37721 -0.00638777 5.45901 0.0115595 5.53738C0.0295068 5.61574 0.0687006 5.68765 0.124838 5.7452L3.2515 8.95003L2.51242 13.4808C2.49922 13.5618 2.50909 13.6449 2.5409 13.7206C2.5727 13.7963 2.62516 13.8615 2.69228 13.9088C2.75939 13.9561 2.83846 13.9835 2.92043 13.988C3.00241 13.9924 3.08398 13.9737 3.15584 13.934L7 11.8095L10.8442 13.9346C10.916 13.9743 10.9976 13.993 11.0796 13.9885C11.1616 13.9841 11.2406 13.9566 11.3077 13.9094C11.3748 13.8621 11.4273 13.7969 11.4591 13.7212C11.4909 13.6455 11.5008 13.5624 11.4876 13.4814L10.7485 8.95062L13.8752 5.74578C13.9315 5.68825 13.9708 5.6163 13.9889 5.53785C14.0069 5.4594 14.0029 5.37749 13.9774 5.30114C13.9519 5.22479 13.9058 5.15696 13.8443 5.10511C13.7827 5.05327 13.708 5.01941 13.6284 5.00728Z" fill="#999999"/>
</g>
</svg>
