<svg width="14" height="14" viewBox="0 0 14 14" fill="none" xmlns="http://www.w3.org/2000/svg">
<g id="Group">
<path id="Vector" d="M12.89 2.03501C12.1796 1.32726 11.2177 0.929871 10.215 0.929871C9.21221 0.929871 8.25033 1.32726 7.53997 2.03501L6.99997 2.57501L6.45997 2.03501C5.74961 1.32726 4.78772 0.929871 3.78497 0.929871C2.78221 0.929871 1.82033 1.32726 1.10997 2.03501C0.401912 2.74622 0.00439453 3.70894 0.00439453 4.71251C0.00439453 5.71608 0.401912 6.6788 1.10997 7.39001L6.64497 12.925C6.69145 12.9719 6.74675 13.0091 6.80768 13.0345C6.86861 13.0598 6.93396 13.0729 6.99997 13.0729C7.06597 13.0729 7.13133 13.0598 7.19226 13.0345C7.25319 13.0091 7.30849 12.9719 7.35497 12.925L12.89 7.39001C13.598 6.6788 13.9955 5.71608 13.9955 4.71251C13.9955 3.70894 13.598 2.74622 12.89 2.03501ZM12.185 6.68001L6.99997 11.865L1.81497 6.68001C1.29377 6.15787 1.00105 5.45026 1.00105 4.71251C1.00105 3.97476 1.29377 3.26715 1.81497 2.74501C2.33796 2.22351 3.0464 1.93066 3.78497 1.93066C4.52354 1.93066 5.23197 2.22351 5.75497 2.74501L6.64497 3.63501C6.69145 3.68187 6.74675 3.71907 6.80768 3.74446C6.86861 3.76984 6.93396 3.78291 6.99997 3.78291C7.06597 3.78291 7.13133 3.76984 7.19226 3.74446C7.25319 3.71907 7.30849 3.68187 7.35497 3.63501L8.24497 2.74501C8.76796 2.22351 9.4764 1.93066 10.215 1.93066C10.9535 1.93066 11.662 2.22351 12.185 2.74501C12.7062 3.26715 12.9989 3.97476 12.9989 4.71251C12.9989 5.45026 12.7062 6.15787 12.185 6.68001Z" fill="#717171"/>
</g>
</svg>
