<svg width="12" height="12" viewBox="0 0 12 12" fill="none" xmlns="http://www.w3.org/2000/svg">
<g id="Group">
<path id="Vector" d="M11.6815 4.29203L7.99249 3.72853L6.33899 0.206527C6.21549 -0.0564727 5.78399 -0.0564727 5.66049 0.206527L4.00749 3.72853L0.318486 4.29203C0.250375 4.30249 0.186464 4.33152 0.13377 4.37593C0.0810758 4.42033 0.0416371 4.4784 0.0197837 4.54376C-0.00206974 4.60911 -0.00549267 4.67922 0.0098907 4.74639C0.0252741 4.81356 0.0588688 4.8752 0.106986 4.92453L2.78699 7.67153L2.15349 11.555C2.14217 11.6245 2.15063 11.6957 2.17789 11.7606C2.20516 11.8255 2.25012 11.8814 2.30765 11.9219C2.36518 11.9624 2.43295 11.9859 2.50321 11.9898C2.57347 11.9936 2.6434 11.9776 2.70499 11.9435L5.99999 10.1225L9.29499 11.944C9.35658 11.9781 9.4265 11.9941 9.49677 11.9903C9.56703 11.9864 9.6348 11.9629 9.69233 11.9224C9.74985 11.8819 9.79482 11.826 9.82208 11.7611C9.84934 11.6962 9.8578 11.625 9.84649 11.5555L9.21299 7.67203L11.893 4.92503C11.9412 4.87571 11.975 4.81404 11.9904 4.7468C12.0059 4.67955 12.0025 4.60935 11.9806 4.54391C11.9588 4.47846 11.9193 4.42032 11.8665 4.37588C11.8137 4.33144 11.7497 4.30243 11.6815 4.29203Z" fill="#FF3179"/>
</g>
</svg>
