<svg width="44" height="40" viewBox="0 0 44 40" fill="none" xmlns="http://www.w3.org/2000/svg">
<g id="Group">
<path id="Vector" d="M42.625 25.4996C41.866 25.4996 41.25 26.1156 41.25 26.8746V36.4996H2.75V19.9996H17.875C18.634 19.9996 19.25 19.3836 19.25 18.6246C19.25 17.8656 18.634 17.2496 17.875 17.2496H2.75V11.7496H17.875C18.634 11.7496 19.25 11.1336 19.25 10.3746C19.25 9.61563 18.634 8.99963 17.875 8.99963H2.75C1.232 8.99963 0 10.2316 0 11.7496V36.4996C0 38.0176 1.232 39.2496 2.75 39.2496H41.25C42.768 39.2496 44 38.0176 44 36.4996V26.8746C44 26.1156 43.384 25.4996 42.625 25.4996Z" fill="#FF3179"/>
<path id="Vector_2" d="M12.375 25.4997H6.875C6.116 25.4997 5.5 26.1157 5.5 26.8747C5.5 27.6337 6.116 28.2497 6.875 28.2497H12.375C13.134 28.2497 13.75 27.6337 13.75 26.8747C13.75 26.1157 13.134 25.4997 12.375 25.4997ZM43.1667 4.98468L33.5417 0.859676C33.3698 0.787526 33.1851 0.750366 32.9986 0.750366C32.8121 0.750366 32.6275 0.787526 32.4555 0.859676L22.8305 4.98468C22.5838 5.09155 22.3737 5.26825 22.2261 5.49301C22.0786 5.71778 22 5.9808 22 6.24968V11.7497C22 19.3149 24.7968 23.7369 32.3153 28.0682C32.527 28.1892 32.7635 28.2497 33 28.2497C33.2365 28.2497 33.473 28.1892 33.6847 28.0682C41.2032 23.7479 44 19.3259 44 11.7497V6.24968C44 5.69968 43.6727 5.20193 43.1667 4.98468ZM41.25 11.7497C41.25 18.0994 39.149 21.5947 33 25.2797C26.851 21.5864 24.75 18.0912 24.75 11.7497V7.15718L33 3.62068L41.25 7.15718V11.7497Z" fill="#FF3179"/>
<path id="Vector_3" d="M37.9858 9.29948C37.3945 8.83198 36.531 8.92273 36.0525 9.51398L31.7295 14.9205L30.019 12.363C29.5928 11.7305 28.7375 11.5627 28.1133 11.9807C27.4835 12.4015 27.3103 13.2567 27.731 13.8865L30.481 18.0115C30.7258 18.3772 31.1273 18.6027 31.5673 18.6247H31.625C32.0403 18.6247 32.4363 18.4377 32.7003 18.1077L38.2003 11.2327C38.6733 10.6387 38.5798 9.77523 37.9858 9.29948Z" fill="#FF3179"/>
</g>
</svg>
