<svg width="34" height="34" viewBox="0 0 34 34" fill="none" xmlns="http://www.w3.org/2000/svg">
<g id="Group">
<path id="Vector" d="M32.5969 16.8103L18.6649 2.87853L18.6641 2.87767L17.2032 1.41656C16.581 0.79394 15.494 0.418049 14.6181 0.522464L3.92916 1.80869C2.84995 1.9376 1.93799 2.84896 1.8077 3.9292L0.522508 14.6179C0.417149 15.4932 0.792867 16.5806 1.416 17.2036L3.05758 18.8447L16.8096 32.5965C17.3892 33.1762 18.1619 33.4956 18.9853 33.4957H18.9858C19.8094 33.4957 20.5822 33.1763 21.1615 32.5966L32.597 21.1615C33.7958 19.9622 33.7959 18.0103 32.5969 16.8103ZM30.7739 19.3388L19.3384 30.7738C19.2134 30.8989 19.0639 30.9176 18.9858 30.9176H18.9857C18.9076 30.9175 18.7579 30.8989 18.6327 30.7736L4.88109 17.0223L4.88023 17.0214L3.24166 15.3834C3.16577 15.2986 3.07511 15.0355 3.08216 14.9258L4.35334 4.35433L14.921 3.08254C15.0351 3.07627 15.298 3.16607 15.38 3.23912L16.841 4.7004H16.8411L30.7735 18.6328C30.9648 18.8243 30.9648 19.1477 30.7739 19.3388Z" fill="#FF3179"/>
<path id="Vector_2" d="M8.22446 8.22498C7.57443 8.87501 7.57443 9.92989 8.22446 10.5804C8.87467 11.2306 9.92946 11.2306 10.5794 10.5804C11.2297 9.92989 11.2306 8.87501 10.5804 8.22446C9.93041 7.57383 8.87467 7.57486 8.22446 8.22498Z" fill="#FF3179"/>
</g>
</svg>
