<svg width="44" height="44" viewBox="0 0 44 44" fill="none" xmlns="http://www.w3.org/2000/svg">
<g id="svgviewer-output (52) 1">
<g id="Group">
<path id="Vector" d="M37.9017 18.1881H37.7928V15.5198C37.7928 6.94846 30.8444 0 22.273 0C13.7015 0 6.75319 6.94846 6.75319 15.5198V18.1881H6.09977C3.7037 18.1881 1.85225 20.3118 1.85225 22.7624V29.5693C1.7919 31.9444 3.66847 33.9188 6.04359 33.9791C6.06235 33.9796 6.081 33.98 6.09977 33.9802H10.1294C10.7002 33.9534 11.1412 33.4688 11.1143 32.898C11.1134 32.8775 11.1118 32.857 11.1096 32.8365V19.495C11.1096 18.8415 10.7285 18.188 10.1294 18.188H8.93141V15.5197C8.93141 8.15139 14.9047 2.17812 22.273 2.17812C29.6413 2.17812 35.6146 8.15139 35.6146 15.5197V18.188H34.4165C33.8175 18.188 33.4363 18.8414 33.4363 19.495V32.8365C33.3756 33.4047 33.7869 33.9146 34.355 33.9754C34.3755 33.9776 34.396 33.9791 34.4165 33.9801H35.669L35.5601 34.1434C34.7542 35.2144 33.7092 36.0823 32.5085 36.6779C31.3078 37.2736 29.9845 37.5804 28.6442 37.5741C28.0493 34.6567 25.2019 32.774 22.2846 33.3691C19.7898 33.8778 17.9911 36.0627 17.971 38.6088C18.0008 41.595 20.4302 44 23.4165 43.9998C24.8948 43.9758 26.3039 43.3691 27.3373 42.3117C28.0344 41.5977 28.4913 40.6839 28.6442 39.6978C30.3227 39.7041 31.9795 39.3185 33.4826 38.5717C34.9858 37.8248 36.2938 36.7374 37.3026 35.3958L38.3373 33.871C40.6788 33.7077 42.1491 32.2374 42.1491 30.1136V23.3067C42.1492 20.9653 40.4067 18.1881 37.9017 18.1881ZM8.93141 31.8019H6.09977C4.92717 31.7734 3.99972 30.7998 4.02828 29.6272C4.0288 29.6079 4.02953 29.5886 4.03047 29.5692V22.7623C4.03047 21.5099 4.90173 20.3662 6.09977 20.3662H8.93141V31.8019ZM25.7582 40.7871C25.4596 41.1108 25.0977 41.3697 24.6949 41.5477C24.2921 41.7257 23.857 41.819 23.4166 41.8218C21.6449 41.7936 20.2071 40.3798 20.1493 38.6089C20.1486 36.8344 21.5864 35.3954 23.3608 35.3947C25.1353 35.394 26.5743 36.8318 26.575 38.6062V38.6089C26.5974 39.0087 26.5364 39.4089 26.3958 39.7839C26.2551 40.1589 26.038 40.5005 25.7582 40.7871ZM39.971 30.1138C39.971 31.5841 38.5551 31.8019 37.9017 31.8019H35.6146V20.3663H37.9017C39.0997 20.3663 39.971 22.0545 39.971 23.3069V30.1138Z" fill="#FF3179"/>
</g>
</g>
</svg>
