<svg width="14" height="14" viewBox="0 0 14 14" fill="none" xmlns="http://www.w3.org/2000/svg">
<g id="Group">
<path id="Vector" d="M12.89 2.03507C12.1796 1.32732 11.2177 0.929932 10.215 0.929932C9.21221 0.929932 8.25033 1.32732 7.53997 2.03507L6.99997 2.57507L6.45997 2.03507C5.74961 1.32732 4.78772 0.929932 3.78497 0.929932C2.78221 0.929932 1.82033 1.32732 1.10997 2.03507C0.401912 2.74628 0.00439453 3.709 0.00439453 4.71257C0.00439453 5.71615 0.401912 6.67886 1.10997 7.39007L6.64497 12.9251C6.69145 12.9719 6.74675 13.0091 6.80768 13.0345C6.86861 13.0599 6.93396 13.073 6.99997 13.073C7.06597 13.073 7.13133 13.0599 7.19226 13.0345C7.25319 13.0091 7.30849 12.9719 7.35497 12.9251L12.89 7.39007C13.598 6.67886 13.9955 5.71615 13.9955 4.71257C13.9955 3.709 13.598 2.74628 12.89 2.03507ZM12.185 6.68007L6.99997 11.8651L1.81497 6.68007C1.29377 6.15793 1.00105 5.45032 1.00105 4.71257C1.00105 3.97482 1.29377 3.26721 1.81497 2.74507C2.33796 2.22357 3.0464 1.93072 3.78497 1.93072C4.52354 1.93072 5.23197 2.22357 5.75497 2.74507L6.64497 3.63507C6.69145 3.68194 6.74675 3.71913 6.80768 3.74452C6.86861 3.7699 6.93396 3.78297 6.99997 3.78297C7.06597 3.78297 7.13133 3.7699 7.19226 3.74452C7.25319 3.71913 7.30849 3.68194 7.35497 3.63507L8.24497 2.74507C8.76796 2.22357 9.4764 1.93072 10.215 1.93072C10.9535 1.93072 11.662 2.22357 12.185 2.74507C12.7062 3.26721 12.9989 3.97482 12.9989 4.71257C12.9989 5.45032 12.7062 6.15793 12.185 6.68007Z" fill="white"/>
</g>
</svg>
