<svg width="25" height="25" viewBox="0 0 25 25" fill="none" xmlns="http://www.w3.org/2000/svg">
<g id="svgviewer-output (46) 2" clip-path="url(#clip0_467_1505)">
<g id="Group">
<g id="Layer 2">
<g id="01.facebook">
<path id="Vector" d="M12.5 25C19.4036 25 25 19.4036 25 12.5C25 5.59644 19.4036 0 12.5 0C5.59644 0 0 5.59644 0 12.5C0 19.4036 5.59644 25 12.5 25Z" fill="#3A559F"/>
<path id="Vector_2" d="M16.4602 11.0199L16.2088 13.1974C16.1983 13.2968 16.1518 13.3889 16.0779 13.4562C16.0041 13.5235 15.9081 13.5613 15.8082 13.5625H13.5355L13.5241 20.0185C13.5249 20.095 13.4955 20.1687 13.4424 20.2237C13.3892 20.2787 13.3165 20.3106 13.24 20.3125H10.9375C10.8992 20.3125 10.8613 20.3048 10.8261 20.2898C10.7908 20.2749 10.759 20.2529 10.7325 20.2253C10.7059 20.1977 10.6852 20.165 10.6717 20.1293C10.6581 20.0935 10.6519 20.0553 10.6534 20.017V13.5625H8.94884C8.8953 13.5619 8.8424 13.5508 8.79315 13.5298C8.7439 13.5088 8.69927 13.4783 8.66181 13.4401C8.62435 13.4018 8.59479 13.3566 8.57482 13.3069C8.55485 13.2572 8.54487 13.2041 8.54543 13.1506L8.53691 10.973C8.53615 10.9193 8.54599 10.8659 8.56586 10.816C8.58573 10.7661 8.61523 10.7206 8.6527 10.6821C8.69016 10.6435 8.73484 10.6128 8.78419 10.5915C8.83354 10.5703 8.88659 10.559 8.94031 10.5582H10.6534V8.45597C10.6534 6.01562 12.1022 4.6875 14.2272 4.6875H15.9687C16.0226 4.68806 16.0758 4.69924 16.1253 4.7204C16.1748 4.74156 16.2197 4.77229 16.2573 4.81083C16.2949 4.84936 16.3245 4.89494 16.3445 4.94496C16.3644 4.99497 16.3743 5.04843 16.3736 5.10227V6.93466C16.3743 6.9885 16.3644 7.04196 16.3445 7.09197C16.3245 7.14199 16.2949 7.18757 16.2573 7.2261C16.2197 7.26464 16.1748 7.29537 16.1253 7.31653C16.0758 7.3377 16.0226 7.34888 15.9687 7.34943H14.9005C13.7457 7.34943 13.5213 7.91761 13.5213 8.73864V10.5582H16.0596C16.1174 10.559 16.1743 10.5719 16.2267 10.5962C16.279 10.6205 16.3257 10.6556 16.3635 10.6992C16.4013 10.7428 16.4295 10.7939 16.4462 10.8492C16.4628 10.9045 16.4676 10.9626 16.4602 11.0199Z" fill="white"/>
</g>
</g>
</g>
</g>
<defs>
<clipPath id="clip0_467_1505">
<rect width="25" height="25" fill="white"/>
</clipPath>
</defs>
</svg>
