<svg width="25" height="25" viewBox="0 0 25 25" fill="none" xmlns="http://www.w3.org/2000/svg">
<g id="svgviewer-output (50) 1" clip-path="url(#clip0_467_1525)">
<g id="Group">
<g id="Layer 2">
<g id="18.dribbble">
<path id="Vector" d="M12.5 25C19.4036 25 25 19.4036 25 12.5C25 5.59644 19.4036 0 12.5 0C5.59644 0 0 5.59644 0 12.5C0 19.4036 5.59644 25 12.5 25Z" fill="#EA4C88"/>
<path id="Vector_2" d="M12.5 20.3125C14.0452 20.3125 15.5556 19.8543 16.8404 18.9959C18.1252 18.1374 19.1265 16.9173 19.7178 15.4897C20.3091 14.0622 20.4638 12.4913 20.1624 10.9759C19.8609 9.46038 19.1169 8.06833 18.0243 6.97573C16.9317 5.88313 15.5396 5.13907 14.0241 4.83762C12.5087 4.53617 10.9378 4.69089 9.51029 5.28219C8.08274 5.8735 6.86259 6.87485 6.00414 8.15961C5.1457 9.44437 4.6875 10.9548 4.6875 12.5C4.692 14.5706 5.51655 16.5551 6.9807 18.0193C8.44485 19.4835 10.4294 20.308 12.5 20.3125ZM12.5 18.892C11.2052 18.8931 9.94126 18.4965 8.87926 17.7557C10.0393 16.1009 11.6825 14.8452 13.5838 14.1605C14.0356 15.5884 14.3216 17.0635 14.4361 18.5568C13.8119 18.7677 13.1588 18.8808 12.5 18.892ZM15.7955 17.9489C15.6568 16.5335 15.3736 15.1361 14.9503 13.7784C16.2073 13.5277 17.5015 13.5277 18.7585 13.7784C18.577 14.64 18.2199 15.4548 17.7093 16.1721C17.1988 16.8895 16.5458 17.4938 15.7912 17.9474L15.7955 17.9489ZM18.8764 12.358C17.4188 12.0886 15.9224 12.1099 14.473 12.4205C14.2926 11.9574 14.0994 11.4986 13.8835 11.0483C15.1471 10.2896 16.2498 9.29071 17.1293 8.10796C18.2183 9.25908 18.841 10.7737 18.8764 12.358ZM12.5 6.10796C13.7585 6.10623 14.9893 6.47744 16.0369 7.17472C15.2811 8.21985 14.3275 9.10641 13.2301 9.78409C12.5465 8.56363 11.7407 7.4157 10.8253 6.35796C11.3699 6.20063 11.9331 6.11655 12.5 6.10796ZM9.44318 6.92046C10.41 7.99311 11.2547 9.16983 11.9616 10.429C10.1743 11.1949 8.1996 11.4125 6.28835 11.054C6.49446 10.1821 6.88192 9.36338 7.42549 8.65118C7.96905 7.93899 8.65654 7.34928 9.44318 6.92046ZM8.09659 12.669C9.65529 12.6642 11.1958 12.3338 12.6193 11.6989C12.7983 12.0724 12.9574 12.4403 13.1108 12.8352C10.9834 13.5951 9.1361 14.9818 7.8125 16.8125C6.72034 15.6417 6.11142 14.1011 6.10795 12.5C6.76621 12.6016 7.43064 12.6581 8.09659 12.669Z" fill="white"/>
</g>
</g>
</g>
</g>
<defs>
<clipPath id="clip0_467_1525">
<rect width="25" height="25" fill="white"/>
</clipPath>
</defs>
</svg>
