<svg width="25" height="25" viewBox="0 0 25 25" fill="none" xmlns="http://www.w3.org/2000/svg">
<g id="svgviewer-output (49) 1" clip-path="url(#clip0_467_1521)">
<g id="Group">
<path id="Vector" d="M12.5 25C19.4036 25 25 19.4036 25 12.5C25 5.59644 19.4036 0 12.5 0C5.59644 0 0 5.59644 0 12.5C0 19.4036 5.59644 25 12.5 25Z" fill="#FF0000"/>
<path id="Vector_2" d="M19.9686 13.506V18.6595H16.9807V13.8514C16.9807 12.6442 16.5493 11.8197 15.4675 11.8197C14.642 11.8197 14.1515 12.3748 13.935 12.9122C13.8563 13.1043 13.836 13.371 13.836 13.6404V18.6593H10.8479C10.8479 18.6593 10.8881 10.516 10.8479 9.67301H13.8362V10.9465C13.8302 10.9565 13.8218 10.9663 13.8164 10.9759H13.8362V10.9465C14.2333 10.3355 14.9414 9.462 16.5291 9.462C18.4948 9.462 19.9686 10.7464 19.9686 13.506ZM7.72216 5.34131C6.70007 5.34131 6.03137 6.01223 6.03137 6.89373C6.03137 7.7565 6.68068 8.44681 7.68295 8.44681H7.70233C8.74448 8.44681 9.39245 7.7565 9.39245 6.89373C9.37262 6.01223 8.74448 5.34131 7.72216 5.34131ZM6.20896 18.6595H9.19592V9.67301H6.20896V18.6595Z" fill="white"/>
</g>
</g>
<defs>
<clipPath id="clip0_467_1521">
<rect width="25" height="25" fill="white"/>
</clipPath>
</defs>
</svg>
