<svg width="19" height="25" viewBox="0 0 19 25" fill="none" xmlns="http://www.w3.org/2000/svg">
<g id="Group">
<path id="Vector" d="M9.50001 0C4.40766 0 0.264893 4.14276 0.264893 9.23512C0.264893 10.9116 1.01674 12.7146 1.04825 12.7906C1.29108 13.367 1.77022 14.2623 2.11572 14.787L8.44775 24.3812C8.70687 24.7746 9.0904 25 9.50001 25C9.90961 25 10.2931 24.7746 10.5523 24.3818L16.8848 14.787C17.2309 14.2623 17.7095 13.367 17.9523 12.7906C17.9838 12.7151 18.7351 10.9121 18.7351 9.23512C18.7351 4.14276 14.5924 0 9.50001 0ZM16.9506 12.3691C16.7338 12.8857 16.2878 13.7185 15.9776 14.1889L9.64505 23.7837C9.52011 23.9733 9.48045 23.9733 9.3555 23.7837L3.02293 14.1889C2.71274 13.7185 2.26674 12.8852 2.04999 12.3685C2.04075 12.3463 1.35138 10.6867 1.35138 9.23512C1.35138 4.74196 5.00685 1.08648 9.50001 1.08648C13.9932 1.08648 17.6486 4.74196 17.6486 9.23512C17.6486 10.6888 16.9576 12.3528 16.9506 12.3691Z" fill="#717171"/>
<path id="Vector_2" d="M9.50002 4.34668C6.80391 4.34668 4.61084 6.54029 4.61084 9.23586C4.61084 11.9314 6.80391 14.125 9.50002 14.125C12.1961 14.125 14.3892 11.9314 14.3892 9.23586C14.3892 6.54029 12.1961 4.34668 9.50002 4.34668ZM9.50002 13.0386C7.40365 13.0386 5.69732 11.3328 5.69732 9.23586C5.69732 7.13894 7.40365 5.43316 9.50002 5.43316C11.5964 5.43316 13.3027 7.13894 13.3027 9.23586C13.3027 11.3328 11.5964 13.0386 9.50002 13.0386Z" fill="#717171"/>
</g>
</svg>
