<svg width="25" height="25" viewBox="0 0 25 25" fill="none" xmlns="http://www.w3.org/2000/svg">
<g id="svgviewer-output (48) 1" clip-path="url(#clip0_467_1517)">
<g id="Group">
<path id="Vector" d="M12.5 25C19.4035 25 24.9998 19.4037 24.9998 12.5003C24.9998 5.59683 19.4035 0.000488281 12.5 0.000488281C5.59659 0.000488281 0.000244141 5.59683 0.000244141 12.5003C0.000244141 19.4037 5.59659 25 12.5 25Z" fill="#CB2027"/>
<path id="Vector_2" d="M13.5093 16.7384C12.5643 16.6654 12.1672 16.1968 11.4261 15.7469C11.0188 17.884 10.521 19.9326 9.04664 21.0028C8.59097 17.7728 9.71466 15.3467 10.2365 12.7716C9.347 11.2742 10.3435 8.26035 12.2196 9.00301C14.5287 9.91613 10.2205 14.5706 13.1127 15.152C16.1321 15.7589 17.3647 9.91279 15.4922 8.01124C12.7867 5.26587 7.61703 7.94885 8.25273 11.879C8.40759 12.8398 9.40048 13.1314 8.64935 14.4572C6.91782 14.0737 6.40132 12.7081 6.46772 10.8874C6.5749 7.90718 9.14558 5.82047 11.7241 5.53169C14.985 5.16671 18.0457 6.72913 18.4682 9.79647C18.9434 13.2584 16.996 17.0076 13.5093 16.7384Z" fill="white"/>
</g>
</g>
<defs>
<clipPath id="clip0_467_1517">
<rect width="25" height="25" fill="white"/>
</clipPath>
</defs>
</svg>
